<?xml version="1.0" encoding="UTF-8" standalone="no"?>
<!-- Created with Inkscape (http://www.inkscape.org/) -->

<svg
   width="156.63333mm"
   height="146.84373mm"
   viewBox="0 0 156.63333 146.84373"
   version="1.1"
   id="svg18153"
   sodipodi:docname="header-logo.svg"
   inkscape:version="1.1 (ce6663b3b7, 2021-05-25)"
   xmlns:inkscape="http://www.inkscape.org/namespaces/inkscape"
   xmlns:sodipodi="http://sodipodi.sourceforge.net/DTD/sodipodi-0.dtd"
   xmlns="http://www.w3.org/2000/svg"
   xmlns:svg="http://www.w3.org/2000/svg">
  <sodipodi:namedview
     id="namedview10"
     pagecolor="#ffffff"
     bordercolor="#666666"
     borderopacity="1.0"
     inkscape:pageshadow="2"
     inkscape:pageopacity="0.0"
     inkscape:pagecheckerboard="0"
     inkscape:document-units="mm"
     showgrid="false"
     fit-margin-top="0"
     fit-margin-left="0"
     fit-margin-right="0"
     fit-margin-bottom="0"
     inkscape:zoom="0.75366162"
     inkscape:cx="241.48769"
     inkscape:cy="307.16703"
     inkscape:window-width="1575"
     inkscape:window-height="761"
     inkscape:window-x="35"
     inkscape:window-y="212"
     inkscape:window-maximized="0"
     inkscape:current-layer="svg18153" />
  <defs
     id="defs18150" />
  <path
     style="fill:#000000;stroke-width:0.264583"
     d="m 78.316671,146.84374 h -19.57917 v -4.89479 -4.89479 h -9.789583 -9.789584 v -4.89479 -4.8948 h -9.789583 -9.789584 v -4.89479 -4.89479 H 14.684375 9.789584 v -4.89479 -4.89479 H 4.894792 0 V 88.106238 68.527078 h 4.894792 4.894792 v -9.78958 -9.78959 H 4.894792 0 V 29.368748 9.789583 H 4.894792 9.789584 V 4.894791 0 h 29.36875 29.368751 v 4.894791 4.894792 h 9.789586 9.78958 V 4.894791 0 H 117.475 146.84375 v 4.894791 4.894792 h 4.89479 4.89479 v 19.579165 19.57916 h -4.89479 -4.89479 v 9.78959 9.78958 h 4.89479 4.89479 v 19.57916 19.579172 h -4.89479 -4.89479 v 4.89479 4.89479 h -4.89479 -4.89479 v 4.89479 4.89479 h -9.78959 -9.78958 v 4.8948 4.89479 h -9.78958 -9.789589 v 4.89479 4.89479 z m 0,-9.78958 h 9.78958 v -4.89479 -4.8948 h 9.78958 9.789589 v -4.89479 -4.89479 h 9.78958 9.78958 v -4.89479 -4.89479 h 4.89479 4.8948 v -4.89479 -4.894792 h 4.89479 4.89479 v -9.78959 -9.78958 h -4.89479 -4.89479 v -4.89479 -4.89479 h -4.8948 -4.89479 v -9.78958 -9.78959 h 4.89479 4.8948 v -4.894786 -4.894791 h 4.89479 4.89479 v -9.789583 -9.789582 h -4.89479 -4.89479 V 14.684374 9.789583 H 117.475 97.895831 v 4.894791 4.894792 h -4.89479 -4.89479 v 4.894791 4.894791 h -9.78958 -9.789586 V 24.473957 19.579166 H 63.632293 58.737501 V 14.684374 9.789583 H 39.158334 19.579167 v 4.894791 4.894792 H 14.684375 9.789584 v 9.789582 9.789583 h 4.894791 4.894792 v 4.894791 4.894786 h 4.894792 4.894792 v 9.78959 9.78958 h -4.894792 -4.894792 v 4.89479 4.89479 H 14.684375 9.789584 v 9.78958 9.78959 h 4.894791 4.894792 v 4.894792 4.89479 h 4.894792 4.894792 v 4.89479 4.89479 h 9.789583 9.789584 v 4.89479 4.89479 h 9.789583 9.789584 v 4.8948 4.89479 z M 24.473959,39.158331 H 19.579167 V 34.26354 29.368748 h 4.894792 4.894792 v 4.894792 4.894791 z m 107.685411,0 h -4.89479 V 34.26354 29.368748 h 4.89479 4.8948 v 4.894792 4.894791 z"
     id="path1112927" />
  <text
     xml:space="preserve"
     style="font-style:normal;font-weight:normal;font-size:90.9267px;line-height:1.25;font-family:sans-serif;fill:#000000;fill-opacity:1;stroke:none;stroke-width:2.27317"
     x="44.942589"
     y="105.25661"
     id="text1114645"
     transform="scale(1.0088486,0.99122901)"><tspan
       id="tspan1114643"
       style="font-style:normal;font-variant:normal;font-weight:normal;font-stretch:normal;font-family:'Arial Black';-inkscape-font-specification:'Arial Black, ';stroke-width:2.27317"
       x="44.942589"
       y="105.25661">T</tspan></text>
  <path
     style="fill:#4d4d4d;fill-opacity:1;stroke-width:1.32686"
     d=""
     id="path24577"
     transform="scale(0.26458333)" />
  <path
     style="fill:#4d4d4d;fill-opacity:1;stroke-width:1.32686"
     d=""
     id="path24694"
     transform="scale(0.26458333)" />
  <path
     style="fill:#4d4d4d;fill-opacity:1;stroke-width:1.32686"
     d="M 260.06366,498.89764 V 480.32166 H 222.91171 185.75976 V 461.74568 443.16971 H 148.60781 111.45585 V 424.59373 406.01776 H 92.879879 74.303903 V 387.44178 368.8658 H 55.727927 37.151952 v -35.82509 -35.8251 H 55.727927 74.303903 V 278.63964 260.06366 H 92.879879 111.45585 V 222.24828 184.4329 H 92.879879 74.303903 V 166.52035 148.60781 H 92.879879 111.45585 V 129.3684 110.129 H 92.216451 72.977048 v 18.57598 18.57597 H 55.0645 37.151952 V 110.79243 74.303903 H 55.727927 74.303903 V 55.727927 37.151952 h 73.640477 73.64047 v 18.575975 18.575976 h 18.57598 18.57598 v 18.575976 18.575971 h 37.15195 37.15195 V 92.879879 74.303903 h 18.57597 18.57598 V 55.727927 37.151952 h 73.64048 73.64047 v 18.575975 18.575976 h 18.57598 18.57597 v 36.488527 36.48852 H 536.71301 518.80047 V 128.70498 110.129 h -19.23941 -19.2394 v 19.2394 19.23941 h 18.57598 18.57597 v 17.91254 17.91255 h -18.57597 -18.57598 v 37.81538 37.81538 h 18.57598 18.57597 v 18.57598 18.57597 h 18.57598 18.57597 v 35.8251 35.82509 h -18.57597 -18.57598 v 18.57598 18.57598 h -18.57597 -18.57598 v 18.57597 18.57598 h -37.15195 -37.15195 v 18.57597 18.57598 H 368.8658 331.71385 v 18.57598 18.57597 h -35.82509 -35.8251 z m 74.3039,-195.71118 v -92.21645 h 39.14224 39.14223 V 180.45234 149.93466 H 295.88876 179.12548 v 30.51768 30.51767 h 39.14224 39.14223 v 92.21645 92.21645 h 38.47881 38.4788 z"
     id="path28543"
     transform="scale(0.26458333)" />
  <path
     style="fill:#0055d4;fill-opacity:1;stroke-width:0.351065"
     d="m 88.64756,62.288333 v -6.31915 h 10.35638 10.35638 V 47.894718 39.820249 H 94.08905 78.81777 v -5.090425 -5.090427 h 4.73936 4.73936 v -4.914892 -4.914894 h 4.9149 4.91489 V 14.894717 9.9798244 h 19.48404 19.48404 v 4.9148926 4.914894 h 4.9149 4.91489 v 9.654256 9.654254 h -4.73936 -4.73936 v -4.914892 -4.914895 h -5.09043 -5.09042 v 5.090425 5.090427 h 4.91489 4.91489 v 4.73936 4.739362 h -4.91489 -4.91489 v 9.829785 9.82979 H 107.95607 88.64756 Z"
     id="path15020" />
  <path
     style="fill:#fec300;fill-opacity:1;stroke-width:0.351065"
     d="m 78.638302,120.76596 v -16.14894 h 4.91489 4.91489 V 86.712764 68.808504 h 24.223408 24.2234 v 4.9149 4.91489 h 4.91489 4.9149 v 9.47872 9.47873 h -4.9149 -4.91489 v 4.914896 4.9149 H 132 127.0851 v 4.91489 4.91489 h -9.82978 -9.82979 v 4.91489 4.9149 h -9.829788 -9.82978 V 132 v 4.9149 h -4.56383 -4.56383 z"
     id="path20049" />
  <path
     style="fill:#338000;fill-opacity:1;stroke-width:0.351065"
     d="m 68.80851,132.00001 v -4.9149 h -9.829787 -9.829786 v -4.91489 -4.9149 H 39.31915 29.489361 v -4.91489 -4.91489 h -4.914893 -4.914893 v -4.9149 -4.914891 H 14.744681 9.8297907 v -9.47872 -9.478734 h 4.9148903 4.914894 v -4.91489 -4.91489 H 43.88298 68.106382 v 17.90425 17.904255 h 5.090425 5.090427 v 16.14894 16.14894 H 73.547872 68.80851 Z"
     id="path20260" />
  <path
     style="fill:#d40000;fill-opacity:1;stroke-width:0.351065"
     d="m 29.489361,58.803191 v -10.00532 h -4.91489 -4.9149 V 44.058509 39.31915 h 4.9149 4.91489 v -5.090427 -5.090425 h -5.09042 -5.09043 v 4.914895 4.914892 h -4.73936 -4.73936 v -9.654254 -9.654256 h 4.91489 4.91489 V 14.744681 9.8297877 h 19.484046 19.484041 v 4.9148933 4.914894 h 4.914895 4.914894 v 4.914893 4.914893 h 5.090425 5.090424 v 5.090427 5.090424 H 63.015958 47.393616 v 8.07447 8.074466 h 10.356385 10.356381 v 6.494682 6.49468 H 48.797871 29.489361 Z"
     id="path24268" />
  <path
     style="fill:#ececec;fill-opacity:1;stroke-width:1.32686"
     d="M 222.91171,536.04959 V 517.47361 H 185.75976 148.60781 V 498.89764 480.32166 H 111.45585 74.303903 V 461.74568 443.16971 H 55.727927 37.151952 V 424.59373 406.01776 H 18.575976 0 V 333.04071 260.06366 H 18.575976 37.151952 V 222.24828 184.4329 H 18.575976 0 V 110.79243 37.151952 H 18.575976 37.151952 V 18.575976 0 H 147.94438 258.73681 v 18.575976 18.575976 h 37.15195 37.15195 V 18.575976 0 h 110.79243 110.79242 v 18.575976 18.575976 h 18.57598 18.57597 v 73.640478 73.64047 h -18.57597 -18.57598 v 37.81538 37.81538 h 18.57598 18.57597 v 72.97705 72.97705 h -18.57597 -18.57598 v 18.57597 18.57598 h -18.57597 -18.57598 v 18.57597 18.57598 h -37.15195 -37.15195 v 18.57598 18.57597 H 406.01776 368.8658 v 18.57598 18.57597 h -72.97704 -72.97705 z m 110.129,-35.8251 v -18.57598 h 37.15195 37.15195 v -18.57597 -18.57598 h 37.15195 37.15195 v -18.57597 -18.57598 h 18.57598 18.57598 v -18.57597 -18.57598 h 18.57597 18.57598 v -37.15195 -37.15195 h -18.57598 -18.57597 v -18.57598 -18.57597 h -18.57598 -18.57598 v -36.48853 -36.48852 h 18.57598 18.57598 v -18.57598 -18.57597 h 18.57597 18.57598 V 110.79243 72.977048 H 537.37644 518.80047 V 54.401072 35.825096 H 443.83314 368.8658 v 18.538532 18.538533 l -18.24426,0.369157 -18.24426,0.369157 -0.36916,18.244262 -0.36915,18.244263 H 295.85131 260.06366 V 91.553023 72.977048 H 241.48769 222.91171 V 54.401072 35.825096 H 147.94438 72.977048 V 54.401072 72.977048 H 54.401072 35.825096 v 37.815382 37.81538 h 18.575976 18.575976 v 18.57597 18.57598 H 91.553023 110.129 v 36.48852 36.48853 H 91.553023 72.977048 v 18.57597 18.57598 H 54.401072 35.825096 v 37.15195 37.15195 h 18.575976 18.575976 v 18.57598 18.57597 H 91.553023 110.129 v 18.57598 18.57597 h 37.15195 37.15195 v 18.57598 18.57597 h 37.15195 37.15196 v 18.57598 18.57598 h 37.15195 37.15195 z"
     id="path28717"
     transform="scale(0.26458333)" />
  <path
     style="fill:#ececec;fill-opacity:1;stroke-width:1.32686"
     d="m 481.64851,129.3684 v -17.91255 h 17.91255 17.91255 v 17.91255 17.91255 h -17.91255 -17.91255 z"
     id="path28756"
     transform="scale(0.26458333)" />
  <path
     style="fill:#ececec;fill-opacity:1;stroke-width:1.32686"
     d="M 74.303903,129.3684 V 111.45585 H 92.216451 110.129 v 17.91255 17.91255 H 92.216451 74.303903 Z"
     id="path28795"
     transform="scale(0.26458333)" />
  <path
     style="fill:#ececec;fill-opacity:1;stroke-width:1.32686"
     d="m 258.73681,301.85961 v -92.21645 h -39.14224 -39.14223 v -29.19082 -29.19082 h 115.43642 115.43642 v 29.19082 29.19082 h -39.14224 -39.14223 v 92.21645 92.21645 h -37.15195 -37.15195 z"
     id="path28834"
     transform="scale(0.26458333)" />
</svg>
