<?xml version="1.0" encoding="UTF-8" standalone="no"?>
<!-- Created with Inkscape (http://www.inkscape.org/) -->

<svg
   width="156.63333mm"
   height="146.84373mm"
   viewBox="0 0 156.63333 146.84373"
   version="1.1"
   id="svg18153"
   sodipodi:docname="header-logo.svg"
   inkscape:version="1.1 (ce6663b3b7, 2021-05-25)"
   xmlns:inkscape="http://www.inkscape.org/namespaces/inkscape"
   xmlns:sodipodi="http://sodipodi.sourceforge.net/DTD/sodipodi-0.dtd"
   xmlns="http://www.w3.org/2000/svg"
   xmlns:svg="http://www.w3.org/2000/svg">
  <sodipodi:namedview
     id="namedview10"
     pagecolor="#ffffff"
     bordercolor="#666666"
     borderopacity="1.0"
     inkscape:pageshadow="2"
     inkscape:pageopacity="0.0"
     inkscape:pagecheckerboard="0"
     inkscape:document-units="mm"
     showgrid="false"
     fit-margin-top="0"
     fit-margin-left="0"
     fit-margin-right="0"
     fit-margin-bottom="0"
     inkscape:zoom="0.75366162"
     inkscape:cx="315.12816"
     inkscape:cy="365.54867"
     inkscape:window-width="2560"
     inkscape:window-height="1025"
     inkscape:window-x="0"
     inkscape:window-y="26"
     inkscape:window-maximized="1"
     inkscape:current-layer="svg18153" />
  <defs
     id="defs18150" />
  <g
     id="layer1"
     transform="translate(-21.847899,-52.038732)">
    <path
       style="fill:#d40000;stroke-width:0.264583"
       d="m 105.05936,189.09289 h -4.89479 v -19.57917 -19.57916 c 0,-39.15833 -9.789586,-29.36875 29.36875,-29.36875 h 14.68437 14.68438 v 4.89479 4.89479 h 4.89479 4.89479 v 9.78958 9.78959 h -4.89479 -4.89479 v 4.89479 4.89479 h -4.8948 -4.89479 v 4.89479 4.89479 h -9.78958 -9.78958 v 4.89479 4.89479 h -9.78959 -9.78958 v 4.8948 4.89479 z m -4.89479,-48.94792 v -4.89479 -4.89479 c 0,19.57917 0,0 0,9.78958 z M 61.006233,120.56581 H 51.21665 v -9.78958 -9.78959 H 46.321858 41.427066 V 96.091854 91.197063 H 36.532274 31.637483 V 81.40748 71.617898 h 4.894791 4.894792 V 66.723106 61.828315 H 61.006233 80.5854 v 4.894791 4.894792 h 4.894792 4.894792 v 4.894791 4.894791 h 4.894791 4.894795 v 4.894792 4.894791 c 0,9.789577 0,0 0,9.789577 v 9.78959 9.78958 H 90.374984 80.5854 c -9.789583,0 0,0 -9.789583,0 z M 46.321858,91.197063 H 51.21665 V 86.302272 81.40748 h -4.894792 -4.894792 v 4.894792 4.894791 z"
       id="path1112929" />
    <path
       style="fill:#fec300;stroke-width:0.264583"
       d="m 95.269775,189.09289 h -4.894791 v -4.89479 -4.8948 H 80.5854 70.795817 v -4.89479 -4.89479 H 61.006233 51.21665 v -4.89479 -4.89479 h -4.894792 -4.894792 v -4.89479 -4.89479 h -4.894792 -4.894791 v -9.78959 -9.78958 h 4.894791 4.894792 v -4.89479 -4.89479 h 14.684375 14.684376 c 9.789583,0 0,0 9.789583,0 h 9.789584 9.789586 v -9.78958 -9.78959 c 0,-9.789577 0,0 0,-9.789577 V 86.302272 81.40748 h 4.89479 4.89479 v -4.894791 -4.894791 h 4.89479 4.89479 v -4.894792 -4.894791 h 19.57917 19.57917 v 4.894791 4.894792 h 4.89479 4.89479 v 9.789582 9.789583 h -4.89479 -4.89479 v 4.894791 4.894786 h -4.8948 -4.89479 v 9.78959 9.78958 h -24.47396 -24.47395 v 9.78958 9.78958 c 0,9.78959 0,0 0,9.78959 v 19.57916 19.57917 z M 154.00727,91.197063 h 4.8948 V 86.302272 81.40748 h -4.8948 -4.89479 v 4.894792 4.894791 z"
       id="path1112931" />
    <path
       style="fill:#000000;stroke-width:0.264583"
       d="M 100.16457,198.88247 H 80.5854 v -4.89479 -4.89479 h -9.789583 -9.789584 v -4.89479 -4.8948 H 51.21665 41.427066 v -4.89479 -4.89479 h -4.894792 -4.894791 v -4.89479 -4.89479 h -4.894792 -4.894792 v -19.57917 -19.57916 h 4.894792 4.894792 v -9.78958 -9.78959 H 26.742691 21.847899 V 81.40748 61.828315 h 4.894792 4.894792 v -4.894792 -4.894791 h 29.36875 29.368751 v 4.894791 4.894792 h 9.789586 9.78958 v -4.894792 -4.894791 h 29.36875 29.36875 v 4.894791 4.894792 h 4.89479 4.89479 v 19.579165 19.57916 h -4.89479 -4.89479 v 9.78959 9.78958 h 4.89479 4.89479 v 19.57916 19.57917 h -4.89479 -4.89479 v 4.89479 4.89479 h -4.89479 -4.89479 v 4.89479 4.89479 h -9.78959 -9.78958 v 4.8948 4.89479 h -9.78958 -9.78959 v 4.89479 4.89479 z m 0,-9.78958 h 9.78958 v -4.89479 -4.8948 h 9.78958 9.78959 v -4.89479 -4.89479 h 9.78958 9.78958 v -4.89479 -4.89479 h 4.89479 4.8948 v -4.89479 -4.89479 h 4.89479 4.89479 v -9.78959 -9.78958 h -4.89479 -4.89479 v -4.89479 -4.89479 h -4.8948 -4.89479 v -9.78958 -9.78959 h 4.89479 4.8948 v -4.894786 -4.894791 h 4.89479 4.89479 V 81.40748 71.617898 h -4.89479 -4.89479 V 66.723106 61.828315 H 139.3229 119.74373 v 4.894791 4.894792 h -4.89479 -4.89479 v 4.894791 4.894791 h -9.78958 -9.789586 V 76.512689 71.617898 H 85.480192 80.5854 V 66.723106 61.828315 H 61.006233 41.427066 v 4.894791 4.894792 h -4.894792 -4.894791 v 9.789582 9.789583 h 4.894791 4.894792 v 4.894791 4.894786 h 4.894792 4.894792 v 9.78959 9.78958 h -4.894792 -4.894792 v 4.89479 4.89479 h -4.894792 -4.894791 v 9.78958 9.78959 h 4.894791 4.894792 v 4.89479 4.89479 h 4.894792 4.894792 v 4.89479 4.89479 h 9.789583 9.789584 v 4.89479 4.89479 h 9.789583 9.789584 v 4.8948 4.89479 z M 46.321858,91.197063 H 41.427066 V 86.302272 81.40748 h 4.894792 4.894792 v 4.894792 4.894791 z m 107.685412,0 h -4.89479 V 86.302272 81.40748 h 4.89479 4.8948 v 4.894792 4.894791 z"
       id="path1112927" />
    <text
       xml:space="preserve"
       style="font-style:normal;font-weight:normal;font-size:90.9267px;line-height:1.25;font-family:sans-serif;fill:#000000;fill-opacity:1;stroke:none;stroke-width:2.27317"
       x="66.598862"
       y="157.75581"
       id="text1114645"
       transform="scale(1.0088486,0.99122901)"><tspan
         id="tspan1114643"
         style="font-style:normal;font-variant:normal;font-weight:normal;font-stretch:normal;font-family:'Arial Black';-inkscape-font-specification:'Arial Black, ';stroke-width:2.27317"
         x="66.598862"
         y="157.75581">T</tspan></text>
  </g>
</svg>
