<?xml version="1.0" encoding="UTF-8" standalone="no"?>
<!-- Created with Inkscape (http://www.inkscape.org/) -->

<svg
   sodipodi:docname="hearts-is-dark.svg"
   inkscape:version="1.1 (ce6663b3b7, 2021-05-25)"
   id="svg5"
   version="1.1"
   viewBox="0 0 155.575 40.481449"
   height="40.481449mm"
   width="155.575mm"
   xmlns:inkscape="http://www.inkscape.org/namespaces/inkscape"
   xmlns:sodipodi="http://sodipodi.sourceforge.net/DTD/sodipodi-0.dtd"
   xmlns="http://www.w3.org/2000/svg"
   xmlns:svg="http://www.w3.org/2000/svg">
  <sodipodi:namedview
     id="namedview7"
     pagecolor="#ffffff"
     bordercolor="#666666"
     borderopacity="1.0"
     inkscape:pageshadow="2"
     inkscape:pageopacity="0.0"
     inkscape:pagecheckerboard="0"
     inkscape:document-units="mm"
     showgrid="false"
     fit-margin-top="0"
     fit-margin-left="0"
     fit-margin-right="0"
     fit-margin-bottom="0"
     inkscape:zoom="0.75366162"
     inkscape:cx="324.41615"
     inkscape:cy="174.48149"
     inkscape:window-width="2560"
     inkscape:window-height="1025"
     inkscape:window-x="0"
     inkscape:window-y="26"
     inkscape:window-maximized="1"
     inkscape:current-layer="layer1" />
  <defs
     id="defs2">
    <filter
       style="color-interpolation-filters:sRGB;"
       inkscape:label="Invert"
       id="filter1309"
       x="0"
       y="0"
       width="1"
       height="1">
      <feColorMatrix
         type="hueRotate"
         values="180"
         result="color1"
         id="feColorMatrix1305" />
      <feColorMatrix
         values="-1 0 0 0 1 0 -1 0 0 1 0 0 -1 0 1 -0.21 -0.72 -0.07 1.48696 0 "
         result="color2"
         id="feColorMatrix1307" />
    </filter>
  </defs>
  <g
     inkscape:label="Camada 1"
     inkscape:groupmode="layer"
     id="layer1"
     transform="translate(-19.406774,-102.48625)">
    <g
       id="g165"
       transform="translate(94.736832,-44.105115)"
       style="filter:url(#filter1309)">
      <path
         style="fill:#6e6e6e;stroke-width:0.264583"
         d="m -55.221726,177.01844 v -3.43958 h -3.307291 -3.307292 v -3.30729 -3.30729 h -3.439583 -3.439583 v -6.87917 -6.87917 h 6.746875 6.746874 v 3.43959 3.43958 h 3.439584 3.439583 v -3.43958 -3.43959 h 3.439583 3.439584 v 3.43959 3.43958 h 3.307291 3.307292 v 3.43958 3.43959 h -3.307292 -3.307291 v 3.30729 3.30729 h -3.439584 -3.439583 v 3.43958 3.43958 h -3.439583 -3.439584 z m 54.23958273,-0.0147 v -3.45429 l -3.37343743,0.0808 -3.3734374,0.0809 0.080854,-3.37344 0.080857,-3.37344 h -3.4542949 -3.454291 v -6.87916 -6.87917 h 6.7468752 6.74687483 v 3.43958 3.43959 H 2.45744 5.8970233 v -3.43959 -3.43958 l 3.3734374,-5.3e-4 3.3734373,-5.3e-4 -0.08085,3.44005 -0.08086,3.44004 h 3.454295 3.454291 v 3.43959 3.43958 h -3.454291 -3.454295 l 0.08086,3.37344 0.08085,3.37344 -3.3734373,-0.0809 -3.3734374,-0.0809 v 3.4543 3.45429 H 2.45744 -0.98214327 v -3.45429 z m 54.23958227,0.0147 v -3.43958 h -3.439583 -3.439584 v -3.30729 -3.30729 h -3.307291 -3.307292 v -6.87917 -6.87917 h 6.746875 6.746875 v 3.43959 3.43958 h 1.719792 1.719791 v 10.18646 10.18645 h -1.719791 -1.719792 z"
         id="path169" />
      <path
         style="fill:#232323;stroke-width:0.264583"
         d="m -55.221726,183.76532 v -3.3073 h -3.307291 -3.307292 v -3.43958 -3.43958 h -3.439583 -3.439583 v -3.30729 -3.30729 h -3.307292 -3.307291 v -6.87917 -6.87917 h 3.307291 3.307292 v -3.30729 -3.30729 h 6.746875 6.746874 v 3.30729 3.30729 h 3.439584 3.439583 v -3.30729 -3.30729 h 6.746875 6.746875 v 3.29938 3.29939 l 3.373437,0.074 3.373438,0.074 v 6.74688 6.74687 l -3.373438,0.0741 -3.373437,0.074 v 3.29939 3.29939 h -3.299386 -3.299389 l -0.07405,3.37344 -0.07405,3.37343 -3.373438,0.074 -3.373437,0.074 v 3.29939 3.29939 h -3.439583 -3.439584 z m 6.879167,-6.74688 v -3.43958 h 3.439583 3.439584 v -3.30729 -3.30729 h 3.307291 3.307292 v -6.87917 -6.87917 h -6.746875 -6.746875 v 3.43959 3.43958 h -3.439583 -3.439584 v -3.43958 -3.43959 h -6.746874 -6.746875 v 6.87917 6.87917 h 3.439583 3.439583 v 3.30729 3.30729 h 3.307292 3.307291 v 3.43958 3.43958 h 3.439584 3.439583 z m 47.36041573,6.74688 v -3.3073 H -4.2894349 -7.5967265 v -3.43958 -3.43958 h -3.4395835 -3.439583 v -3.29939 -3.29939 l -3.373437,-0.074 -3.373438,-0.0741 v -6.74687 -6.74688 l 3.373438,-0.074 3.373437,-0.074 v -3.29939 -3.29938 h 6.7468749 6.74687483 v 3.30729 3.30729 H 2.45744 5.8970233 v -3.30729 -3.30729 h 6.7468747 6.746875 v 3.29938 3.29939 l 3.373437,0.074 3.373438,0.074 v 6.74688 6.74687 l -3.373438,0.0741 -3.373437,0.074 v 3.29939 3.29939 H 15.95119 12.511606 v 3.43958 3.43958 H 9.2043149 5.8970233 v 3.3073 3.30729 H 2.45744 -0.98214327 Z m 6.87916657,-6.74688 v -3.43958 h 3.3072916 3.3072911 v -3.30729 -3.30729 h 3.439584 3.439583 v -6.87917 -6.87917 H 12.643898 5.8970233 v 3.43959 3.43958 H 2.45744 -0.98214327 v -3.43958 -3.43959 H -7.7290181 -14.475893 v 6.87917 6.87917 h 3.439583 3.4395835 v 3.30729 3.30729 h 3.3072916 3.30729163 v 3.43958 3.43958 H 2.45744 5.8970233 Z m 47.3604157,6.75478 v -3.29939 l -3.373437,-0.074 -3.373438,-0.074 -0.07405,-3.37343 -0.07405,-3.37344 h -3.299389 -3.299386 v -3.29939 -3.29939 l -3.373437,-0.074 -3.373438,-0.0741 v -6.74687 -6.74688 l 3.373438,-0.074 3.373437,-0.074 v -3.29939 -3.29938 h 6.746875 6.746875 v 3.30729 3.30729 h 3.439583 3.439584 v -3.30729 -3.30729 h 6.746874 6.746875 v 3.30729 3.30729 h 3.307292 3.307291 v 6.87917 6.87917 h -3.307291 -3.307292 v 3.30729 3.30729 h -3.439583 -3.439583 v 3.43958 3.43958 h -3.307292 -3.307291 v 3.3073 3.30729 h -3.439584 -3.439583 z m 6.879167,-6.75478 v -3.43958 h 3.307291 3.307292 v -3.30729 -3.30729 h 3.439583 3.439583 v -6.87917 -6.87917 H 66.88348 60.136606 v 3.43959 3.43958 h -3.439584 -3.439583 v -3.43958 -3.43959 h -6.746875 -6.746875 v 6.87917 6.87917 h 3.307292 3.307291 v 3.30729 3.30729 h 3.439584 3.439583 v 3.43958 3.43958 h 3.439583 3.439584 z"
         id="path167" />
    </g>
    <path
       style="fill:#d40000;stroke-width:1.32686"
       d="M 76.294186,114.77299 V 101.50444 H 63.68906 51.083933 V 88.899313 76.294186 H 38.478807 25.873681 V 51.083933 25.873681 H 50.420506 74.967331 V 38.478807 51.083933 H 88.899313 102.83129 V 38.478807 25.873681 h 12.60513 12.60513 v 12.605126 12.605126 h 11.9417 11.94169 v 12.555335 12.555335 l -12.27341,0.381506 -12.27341,0.381505 -0.38151,12.273413 -0.3815,12.273413 h -12.55534 -12.55533 v 13.26855 13.26856 H 88.899313 76.294186 Z"
       id="path1421"
       transform="matrix(0.26458333,0,0,0.26458333,19.406774,102.48625)" />
    <path
       style="fill:#d40000;stroke-width:1.32686"
       d="M 281.95678,114.77299 V 101.50444 H 269.35165 256.74652 V 88.899313 76.294186 H 243.47797 230.20941 V 51.083933 25.873681 h 25.21026 25.21025 v 12.605126 12.605126 h 13.26855 13.26856 V 38.478807 25.873681 h 12.49878 12.49879 l -0.75204,12.605126 -0.75203,12.605126 h 13.4635 13.4635 V 63.68906 76.294186 H 344.31898 331.05043 V 88.899313 101.50444 H 318.4453 305.84017 v 13.26855 13.26856 h -11.9417 -11.94169 z"
       id="path1460"
       transform="matrix(0.26458333,0,0,0.26458333,19.406774,102.48625)" />
    <path
       style="fill:#d40000;stroke-width:1.32686"
       d="M 486.29251,114.77299 V 101.50444 H 473.68738 461.08226 V 88.899313 76.294186 H 448.47713 435.872 V 51.083933 25.873681 h 24.54683 24.54682 v 12.605126 12.605126 h 6.63428 6.63428 v 38.478807 38.47881 h -5.97085 -5.97085 z"
       id="path1499"
       transform="matrix(0.26458333,0,0,0.26458333,19.406774,102.48625)" />
  </g>
</svg>
