<?xml version="1.0" encoding="UTF-8" standalone="no"?>
<!-- Created with Inkscape (http://www.inkscape.org/) -->

<svg
   version="1.1"
   id="svg263"
   width="185.00005"
   height="165.51114"
   viewBox="0 0 185.00005 165.51114"
   sodipodi:docname="js-pix.svg"
   inkscape:version="1.1 (ce6663b3b7, 2021-05-25)"
   xmlns:inkscape="http://www.inkscape.org/namespaces/inkscape"
   xmlns:sodipodi="http://sodipodi.sourceforge.net/DTD/sodipodi-0.dtd"
   xmlns="http://www.w3.org/2000/svg"
   xmlns:svg="http://www.w3.org/2000/svg">
  <defs
     id="defs267" />
  <sodipodi:namedview
     id="namedview265"
     pagecolor="#ffffff"
     bordercolor="#666666"
     borderopacity="1.0"
     inkscape:pageshadow="2"
     inkscape:pageopacity="0.0"
     inkscape:pagecheckerboard="0"
     showgrid="false"
     fit-margin-top="0"
     fit-margin-left="0"
     fit-margin-right="0"
     fit-margin-bottom="0"
     inkscape:zoom="1.5625"
     inkscape:cx="-111.36"
     inkscape:cy="75.2"
     inkscape:window-width="2560"
     inkscape:window-height="1025"
     inkscape:window-x="0"
     inkscape:window-y="26"
     inkscape:window-maximized="1"
     inkscape:current-layer="g269" />
  <g
     inkscape:groupmode="layer"
     inkscape:label="Image"
     id="g269"
     transform="translate(-305.88719,-34.85537)">
    <path
       style="fill:#ffd42a"
       d="m 477.11919,190.35537 c 0,-1.925 0.2058,-2.7125 0.45733,-1.75 0.25152,0.9625 0.25152,2.5375 0,3.5 -0.25153,0.9625 -0.45733,0.175 -0.45733,-1.75 z M 326.55386,186.6887 c -0.36667,-0.36666 -0.66667,-32.99166 -0.66667,-72.5 V 42.35537 h 72.5 72.5 v 72.5 72.5 h -71.83333 c -39.50834,0 -72.13334,-0.3 -72.5,-0.66667 z m 75.33333,-9.83333 c 0,-3.33333 0.16667,-3.5 3.5,-3.5 h 3.5 v -31 -31 h -7 -7 v 27.5 27.5 h -6.5 -6.5 v -3.5 -3.5 h -7.5 -7.5 v 7 7 h 3.5 c 3.33333,0 3.5,0.16667 3.5,3.5 v 3.5 h 14 14 z m 55,0 c 0,-3.33333 0.16667,-3.5 3.5,-3.5 h 3.5 v -14 -14 h -3.5 c -3.33333,0 -3.5,-0.16667 -3.5,-3.5 v -3.5 h -10 -10 v -6.5 -6.5 h 6.5 6.5 v 3.5 3.5 h 7 7 v -7.5 -7.5 h -3.5 c -3.22222,0 -3.5,-0.2381 -3.5,-3 v -3 h -14 -14 v 2.93664 c 0,2.58219 -0.39228,2.97447 -3.25,3.25 l -3.25,0.31336 v 14 14 l 3.25,0.31336 c 2.85772,0.27553 3.25,0.66781 3.25,3.25 v 2.93664 h 10.5 10.5 v 7 7 h -6.5 -6.5 v -3.5 -3.5 h -7.5 -7.5 v 7 7 h 3.5 c 3.33333,0 3.5,0.16667 3.5,3.5 v 3.5 h 14 14 z M 358.56281,35.605776 c 21.54659,-0.150417 57.09659,-0.150481 79,-1.41e-4 21.90341,0.15034 4.27438,0.273409 -39.17562,0.273487 -43.45,7.7e-5 -61.37097,-0.122928 -39.82438,-0.273346 z"
       id="path730" />
    <path
       style="fill:#e9d792"
       d="m 312.70096,197.11094 c -0.27602,-2.86392 -0.70475,-3.29327 -3.56377,-3.56893 -2.85772,-0.27553 -3.25,-0.66781 -3.25,-3.25 v -2.93664 h 6.49375 6.49376 l 0.26258,-76.25 0.26259,-76.25 0.24366,79.25 0.24366,79.25 78.75,2.6e-4 78.75,2.6e-4 -0.026,-78.75026 -0.026,-78.75026 0.28227,75.75 0.28226,75.75 h 6.49376 6.49375 v 2.93664 c 0,2.58219 -0.39228,2.97447 -3.25,3.25 -2.86508,0.27625 -3.25428,0.66867 -3.28612,3.31336 l -0.0361,3 -85.65011,0.25557 -85.65011,0.25557 -0.31378,-3.25557 z m 111.43623,-51.4449 c 0.9625,-0.25152 2.5375,-0.25152 3.5,0 0.9625,0.25153 0.175,0.45733 -1.75,0.45733 -1.925,0 -2.7125,-0.2058 -1.75,-0.45733 z m 0,-28 c 0.9625,-0.25152 2.5375,-0.25152 3.5,0 0.9625,0.25153 0.175,0.45733 -1.75,0.45733 -1.925,0 -2.7125,-0.2058 -1.75,-0.45733 z m 34.51166,-0.0179 c 1.24391,-0.23919 3.04391,-0.23011 4,0.0202 0.95609,0.25029 -0.0617,0.446 -2.26166,0.4349 -2.2,-0.0111 -2.98225,-0.21589 -1.73834,-0.45508 z"
       id="path728" />
    <path
       style="fill:#efcb3f"
       d="m 319.88719,114.85537 v -78.5 h 78.5 78.5 v 78.5 78.5 h -78.5 -78.5 z m 151,0 v -72.5 h -72.5 -72.5 v 71.83333 c 0,39.50834 0.3,72.13334 0.66667,72.5 0.36666,0.36667 32.99166,0.66667 72.5,0.66667 h 71.83333 z m -103.67186,51 c 0.004,-3.85 0.18518,-5.30246 0.40166,-3.2277 0.21647,2.07477 0.21284,5.22477 -0.008,7 -0.22091,1.77524 -0.39803,0.0777 -0.39359,-3.7723 z m 55,0 c 0.004,-3.85 0.18518,-5.30246 0.40166,-3.2277 0.21647,2.07477 0.21284,5.22477 -0.008,7 -0.22091,1.77524 -0.39803,0.0777 -0.39359,-3.7723 z m -41.07596,-3 c 0.0111,-2.2 0.21589,-2.98225 0.45508,-1.73834 0.23919,1.24391 0.23011,3.04391 -0.0202,4 -0.25029,0.95609 -0.446,-0.0617 -0.4349,-2.26166 z m 55,0 c 0.0111,-2.2 0.21589,-2.98225 0.45508,-1.73834 0.23919,1.24391 0.23011,3.04391 -0.0202,4 -0.25029,0.95609 -0.446,-0.0617 -0.4349,-2.26166 z m -13.85762,-31 c 0.002,-7.7 0.15853,-10.71781 0.34883,-6.70625 0.1903,4.01156 0.18902,10.31156 -0.003,14 -0.19169,3.68844 -0.34739,0.40625 -0.34583,-7.29375 z m 13.93358,0 c 0.004,-3.85 0.18518,-5.30246 0.40166,-3.2277 0.21647,2.07477 0.21284,5.22477 -0.008,7 -0.22091,1.77524 -0.39803,0.0777 -0.39359,-3.7723 z"
       id="path726" />
    <path
       style="fill:#3a3b3c"
       d="m 374.73624,179.60537 c -0.083,-0.4125 -0.19552,-1.875 -0.25,-3.25 -0.0818,-2.0644 -0.66533,-2.5546 -3.34905,-2.81336 l -3.25,-0.31336 v -6.93664 -6.93664 h 6.5 6.5 v 3.5 3.5 h 7 7 v -27.5 -27.5 h 7 7 v 31 31 h -3.5 c -3.33333,0 -3.5,0.16667 -3.5,3.5 v 3.5 h -13.5 c -7.425,0 -13.56793,-0.3375 -13.65095,-0.75 z m 55,0 c -0.083,-0.4125 -0.19552,-1.875 -0.25,-3.25 -0.0818,-2.0644 -0.66533,-2.5546 -3.34905,-2.81336 l -3.25,-0.31336 v -6.93664 -6.93664 h 6.5 6.5 v 3.5 3.5 h 7 7 v -6.96502 -6.96501 l -10.25,-0.28499 c -8.24441,-0.22922 -10.27635,-0.57848 -10.38465,-1.78498 -0.0741,-0.825 -0.18656,-2.2875 -0.25,-3.25 -0.0825,-1.25214 -0.96882,-1.75 -3.11535,-1.75 h -3 v -13.5 -13.5 h 3 c 2.97659,0 3.22623,-0.36397 3.25794,-4.75 0.0161,-2.22435 0.17431,-2.25 13.87916,-2.25 h 13.8629 v 3.5 c 0,3.34192 0.16014,3.5 3.54569,3.5 h 3.54569 l -0.29569,6.75 -0.29569,6.75 h -6.5 -6.5 l -0.31336,-3.25 -0.31336,-3.25 h -6.93664 -6.93664 v 6.5 6.5 h 10.5 10.5 v 3.5 c 0,3.33333 0.16667,3.5 3.5,3.5 h 3.5 v 14 14 h -3.5 c -3.33333,0 -3.5,0.16667 -3.5,3.5 v 3.5 h -13.5 c -7.425,0 -13.56793,-0.3375 -13.65095,-0.75 z"
       id="path724" />
  </g>
</svg>
